PathFileType	4	(X/Y/Z)	path1_16_0-584.trc
DataRate	CameraRate	NumFrames	NumMarkers	Units	OrigDataRate	OrigDataStartFrame	OrigNumFrames
30	30	6	22	m	30	146	584
Frame#	Time	Hip			RHip			RKnee			RAnkle			RBigToe			RSmallToe			RHeel			LHip			LKnee			LAnkle			LBigToe			LSmallToe			LHeel			Neck			Head			Nose			RShoulder			RElbow			RWrist			LShoulder			LElbow			LWrist		
		X1	Y1	Z1	X2	Y2	Z2	X3	Y3	Z3	X4	Y4	Z4	X5	Y5	Z5	X6	Y6	Z6	X7	Y7	Z7	X8	Y8	Z8	X9	Y9	Z9	X10	Y10	Z10	X11	Y11	Z11	X12	Y12	Z12	X13	Y13	Z13	X14	Y14	Z14	X15	Y15	Z15	X16	Y16	Z16	X17	Y17	Z17	X18	Y18	Z18	X19	Y19	Z19	X20	Y20	Z20	X21	Y21	Z21	X22	Y22	Z22
147	4.9	2.520242669579744	0.837252979800468	0.5905661953579995	2.5283200405725674	0.799794362421819	0.5149703424465905	2.5097014572607623	0.4616390573901208	0.5212691135315027	2.56974828477994	0.09519365591434807	0.5579097704782219	2.371012335352909	0.02429369457397161	0.5332344163002906	2.401507797522063	0.020146719427053594	0.4686551836352399	2.616600898232273	0.029538293067080362	0.5622785263746982	2.5130463853732445	0.7998733255696869	0.6743903032781743	2.517188259333171	0.43892992134113096	0.6535699604467502	2.544001643392179	0.10757656262171769	0.6598258973578797	2.379561622961624	0.01922128195549302	0.6762630544239752	2.4074766422470284	0.028181750682290705	0.7295140010656883	2.5824242973257303	0.04115130929737062	0.6618616465294568	2.4876676273412186	1.4741910116100267	0.6055023427432964	2.4591765860606807	1.7204451626841293	0.556548141269193	2.3557799797313566	1.6101149612562893	0.5801420571791742	2.545405722585178	1.3664057406170251	0.43637734680471263	2.5605686029934933	1.0696907568353455	0.4222799974597072	2.507760264126859	0.8467529249277476	0.38680236814166125	2.4798326878817667	1.3504579415524587	0.7747984341226829	2.517487286213067	1.0708944960947318	0.8029249347153237	2.5026910614364977	0.8375257570266098	0.8129821964184486
148	4.933333333333334	2.520141657755228	0.8373304990049397	0.5903265706414592	2.528211086844448	0.7997348069904227	0.5148537832976965	2.509366415883866	0.4621636663496903	0.5200376579264339	2.5699960924786995	0.095129583344404	0.5573473726242854	2.370562258556794	0.0232479023865662	0.531719569341288	2.4013094126530508	0.01939440352127627	0.46860627703828023	2.6165239061478474	0.029200877575817206	0.5616245213311709	2.5127732166193115	0.7995973466087057	0.674010288398352	2.5166761846069616	0.43890847576442094	0.6536296982213295	2.54169247437583	0.1093391638010023	0.6608452177353956	2.3793909109840166	0.020105131370984457	0.676802803529381	2.4069132263368007	0.028930685121126048	0.7296648097548927	2.5804154409266404	0.041528928142155176	0.6617140638129847	2.487545487580367	1.4740911542257473	0.6060208795175739	2.459866958984484	1.7205628497366077	0.5563502101573247	2.35590166749946	1.6102732287370771	0.5808075746495861	2.545381629845543	1.3664161674195963	0.43694859598209146	2.5604933368874057	1.0697509027655063	0.42261554859973766	2.507892249071662	0.8464825253130829	0.3876643149676199	2.4798785886144223	1.3502864819965752	0.7751345003373414	2.517666539121881	1.0709854551578837	0.8031666655790806	2.5025213989083377	0.8378886336598212	0.8132879633650394
149	4.966666666666667	2.5199284376606275	0.837478635469749	0.590235029598315	2.527869027114363	0.7998020073013272	0.5148023581323367	2.507677641882039	0.4634256376048335	0.5173062944428977	2.57008679560324	0.09527789078587857	0.5568302907991445	2.3701664442902746	0.022476146056196356	0.5305053835239655	2.401435547466985	0.018925380977385258	0.46858854579168574	2.6164115257109613	0.02911309274302511	0.5610315293530372	2.51248674891275	0.7994482976392426	0.6737977387586209	2.516342309463594	0.4389213916074684	0.6539256214244671	2.540475358917876	0.11018380611492454	0.6614872820567168	2.3790879019243065	0.02105226506522058	0.6776155956468713	2.40761057103599	0.028617415398921108	0.7298123967623853	2.580188677044385	0.04139760506821933	0.6621407189928572	2.4875129502814852	1.4739454958606386	0.606560085547976	2.460120630068392	1.7204237418866	0.5563658146427868	2.35606311241836	1.610470058315075	0.5816140725545507	2.5453625354821563	1.3665564422561904	0.43743063400529414	2.560416727335566	1.0697549147436536	0.4228607681829711	2.508063986512955	0.8464131845140392	0.3881842874794029	2.479881113558997	1.350151886989216	0.775322336286338	2.517746758221888	1.071106689577132	0.8032560978801522	2.5023889858565376	0.8381778916574796	0.8135457776867131
150	5.0	2.519600510586015	0.8376302168554906	0.5903433492980019	2.5273445710994307	0.799860189253547	0.5148055182176099	2.5057103559754674	0.4646903143867514	0.5146171713362998	2.57002018301597	0.09557190178055014	0.5564427687736094	2.369862579419494	0.022055966603138962	0.5296960879910079	2.4017414702178623	0.018718121859956853	0.46863626684018433	2.6163283207009624	0.029202821344271917	0.5606488616753967	2.5122382560163	0.7992547255638327	0.6736994513250986	2.516245122119742	0.43881102008202655	0.6542866170460108	2.5404378751061913	0.11005343260897871	0.6617643980478258	2.3787356507515676	0.02173780550804502	0.6783115939151532	2.408983260799317	0.027684658105684986	0.7299349743228812	2.581215727793672	0.041001189008310006	0.6627982804435877	2.4875155126706936	1.4738024050318514	0.6070953260998556	2.4601802798538386	1.7201039060587202	0.5566367127257549	2.3562403358133595	1.6107173934798031	0.5824948438056647	2.545353524892471	1.3668059045897403	0.4377598106617464	2.560371603755117	1.069785950418447	0.423035587430728	2.5082159734689844	0.8465080098349367	0.3884283973535398	2.4797059342242065	1.3500137620263015	0.7753994940354787	2.517713442501245	1.0712028481434583	0.8032467916096935	2.5023588242910475	0.8384206147076609	0.8137787247157503
151	5.033333333333333	2.519185998069592	0.8377446928152182	0.5906191530523521	2.526769856607416	0.7998153593631486	0.5148624388959524	2.504242796977953	0.4654367402723137	0.5129329659209103	2.5698167852372302	0.09580659602972107	0.5562086865149162	2.369570259240312	0.02173720545736854	0.5290081224080968	2.401990557759088	0.018666898552259732	0.4686901638182321	2.61634283072834	0.02934655317329675	0.560526414342854	2.512030675415936	0.7988809420145221	0.6736344795593242	2.516282758348456	0.4384513265607716	0.6545370524132619	2.5410163810982214	0.10942464504176316	0.6618797698743877	2.3784162615720446	0.022106177970250926	0.678755811037592	2.4103774353589515	0.02680275225590181	0.7301522668762938	2.5822476047741545	0.04070127912469235	0.663061039138246	2.487483823831127	1.473716255799531	0.6075428978682681	2.460258827797601	1.719679366940289	0.5572161536546881	2.356446966928049	1.6109806604377594	0.5834583560620699	2.5453473488349028	1.367126339331515	0.4379051909520152	2.5604029005255864	1.069926579038013	0.4231636500753077	2.508243085355215	0.8467308262290497	0.38845882646853036	2.479303910858198	1.3498749863678197	0.7754174153765316	2.517616891710601	1.0712661592130936	0.8032258101480688	2.502422151437957	0.8386881305123259	0.8139890907627705
152	5.066666666666666	2.518757157493447	0.83782321270834	0.5909925322309408	2.5262991446436183	0.7996961592276258	0.5149873159441916	2.503620024452772	0.4654955492067697	0.5125448228845177	2.569520971098211	0.09580608350840959	0.5561398522044249	2.369262897383332	0.021353916910837482	0.5282091956602265	2.4020227581161944	0.018669673506822346	0.4686815069409086	2.6164510066374422	0.029416806485291533	0.5605990786314274	2.5118581899470813	0.7983743453708816	0.6736202181432877	2.516328806104013	0.4378987537711703	0.6546208945401157	2.541720012559037	0.10866575108339308	0.6619517282892209	2.378196063240578	0.022249063801997093	0.6789758107020151	2.4114924741433343	0.026356384308477882	0.7305675620944734	2.5824533832973198	0.040673073478317896	0.6625437368674603	2.4873952596438205	1.4737107955837292	0.6078304995469026	2.4604455108852927	1.719267611422438	0.5580879367593218	2.3567008363297925	1.6111937345721508	0.5845191396924898	2.545324908507611	1.3674729396444567	0.43788293346783697	2.56053351482971	1.0701887715472196	0.423243923647126	2.5080909598334764	0.8470112417079633	0.3883386366003386	2.4787638984420104	1.3497699137305081	0.7754474316822508	2.517516246325294	1.071327604005669	0.8032816878995548	2.5024968804647023	0.8390044594031373	0.8141393073088683
